<svg width="233" height="233" viewBox="0 0 233 233" fill="none" xmlns="http://www.w3.org/2000/svg">
<path d="M185 210.01H48V130.744L115.923 95.0095L185 130.744V210.01Z" stroke="#1073BC" stroke-width="10" stroke-linecap="round" stroke-linejoin="round"/>
<path d="M171.332 78.6944C180.946 78.6944 188.739 70.9012 188.739 61.2879C188.739 51.6746 180.946 43.8814 171.332 43.8814C161.719 43.8814 153.926 51.6746 153.926 61.2879C153.926 70.9012 161.719 78.6944 171.332 78.6944Z" stroke="#EE7601" stroke-width="10" stroke-linecap="round" stroke-linejoin="round"/>
<path d="M153.925 61.2879H135.9" stroke="#EE7601" stroke-width="10" stroke-linecap="round" stroke-linejoin="round"/>
<path d="M206.763 61.2879H188.738" stroke="#EE7601" stroke-width="10" stroke-linecap="round" stroke-linejoin="round"/>
<path d="M171.332 79.8308V95.1964" stroke="#EE7601" stroke-width="10" stroke-linecap="round" stroke-linejoin="round"/>
<path d="M171.332 27.3794V42.745" stroke="#EE7601" stroke-width="10" stroke-linecap="round" stroke-linejoin="round"/>
<path d="M158.938 73.5078L147.188 85.2579" stroke="#EE7601" stroke-width="10" stroke-linecap="round" stroke-linejoin="round"/>
<path d="M196.402 36.0413L184.652 47.7913" stroke="#EE7601" stroke-width="10" stroke-linecap="round" stroke-linejoin="round"/>
<path d="M196.516 85.2579L184.766 73.5078" stroke="#EE7601" stroke-width="10" stroke-linecap="round" stroke-linejoin="round"/>
<path d="M158.938 49.068L147.188 37.3179" stroke="#EE7601" stroke-width="10" stroke-linecap="round" stroke-linejoin="round"/>
<path d="M66.4121 196.57V139.926" stroke="#1AC1F3" stroke-width="10" stroke-linecap="round" stroke-linejoin="round"/>
<path d="M83.1562 196.57V131.744" stroke="#1AC1F3" stroke-width="10" stroke-linecap="round" stroke-linejoin="round"/>
<path d="M99.752 196.57V124.978L115.744 116.088L132.252 124.978V196.57" stroke="#1AC1F3" stroke-width="10" stroke-linecap="round" stroke-linejoin="round"/>
<path d="M148.996 196.57V131.744" stroke="#1AC1F3" stroke-width="10" stroke-linecap="round" stroke-linejoin="round"/>
<path d="M165.592 196.57V139.926" stroke="#1AC1F3" stroke-width="10" stroke-linecap="round" stroke-linejoin="round"/>
<path d="M100 151.01H132" stroke="#1AC1F3" stroke-width="10" stroke-linecap="round" stroke-linejoin="round"/>
<path d="M100 197.01H132" stroke="#1AC1F3" stroke-width="10" stroke-linecap="round" stroke-linejoin="round"/>
</svg>
