<svg width="37" height="38" viewBox="0 0 37 38" fill="none" xmlns="http://www.w3.org/2000/svg">
<path d="M36.8729 3.9883V34.0025C36.8729 35.6687 35.5107 37.0309 33.8445 37.0309H3.82921C2.16223 37.0309 0.800781 35.6687 0.800781 34.0025V3.9883C0.800781 2.3251 2.16223 0.962952 3.82921 0.962952H33.8445C35.5107 0.962952 36.8729 2.3251 36.8729 3.9883Z" fill="#1AC1F3"/>
<path d="M25.2261 23.7509H20.696V37.037H15.2685V23.7509H12.5547V18.3266H15.2464V15.8728C15.2464 13.6536 16.3056 10.1827 20.9585 10.1827L25.1507 10.2022V14.8525H22.1068C21.6097 14.8525 20.9052 15.0988 20.9052 16.1548V18.3266H25.2176L25.2261 23.7509Z" fill="#FDFDFD"/>
</svg>
