<svg width="150" height="150" viewBox="0 0 150 150" fill="none" xmlns="http://www.w3.org/2000/svg">
<g clip-path="url(#clip0_610_356)">
<path d="M113.776 120.27C112.831 120.27 111.93 119.728 111.513 118.814C110.951 117.579 111.483 116.121 112.71 115.539C122.821 110.745 129.599 100.828 128.471 95.8139C127.735 92.5449 123.399 91.8587 119.892 91.8587C111.4 91.8587 110.464 99.1304 110.386 99.9593C110.265 101.235 109.192 102.225 107.911 102.225H72.1602C71.5053 102.231 70.8555 102.225 70.2107 102.23H70.1921C69.1707 102.23 68.2526 101.605 67.8791 100.653C66.2648 96.5371 65.4463 92.1989 65.4463 87.7589C65.4463 68.3308 81.2521 52.525 100.68 52.525C120.108 52.525 135.914 68.3308 135.914 87.7589C135.914 101.771 127.614 114.45 114.769 120.062C114.446 120.203 114.108 120.27 113.776 120.27ZM100.68 57.4945C83.9921 57.4945 70.4158 71.0708 70.4158 87.7589C70.4158 91.0104 70.9261 94.1974 71.9348 97.2557H105.845C107.053 92.7866 110.933 86.8892 119.892 86.8892C125.577 86.8892 128.899 88.4295 130.838 90.2985C130.908 89.4589 130.944 88.612 130.944 87.7589C130.944 71.0708 117.368 57.4945 100.68 57.4945Z" fill="#2F3092"/>
<path d="M100.68 122.992H17.1173C14.525 122.992 12.2839 121.32 11.5407 118.832C10.8013 116.356 11.7537 113.742 13.9108 112.328C25.2703 104.877 40.8403 97.2606 70.1928 97.2606L72.1607 97.2557H105.845C107.054 92.7866 110.933 86.8892 119.893 86.8892C130.04 86.8892 132.661 91.797 133.319 94.7224C135.112 102.685 126.476 114.511 114.84 120.029C114.817 120.04 114.794 120.051 114.771 120.061C110.325 122.006 105.584 122.992 100.68 122.992ZM72.1607 102.225L70.1928 102.23C42.1484 102.23 27.3821 109.435 16.6363 116.483C16.2141 116.76 16.2216 117.14 16.3024 117.41C16.3859 117.689 16.5951 118.023 17.1172 118.023H100.68C104.882 118.023 108.94 117.182 112.745 115.523C122.836 110.722 129.598 100.822 128.471 95.8139C127.735 92.5449 123.4 91.8586 119.892 91.8586C111.155 91.8586 110.415 99.6142 110.387 99.9448C110.281 101.233 109.204 102.225 107.911 102.225H72.1607Z" fill="#2F3092"/>
<path d="M102.514 122.992H100.68C99.3079 122.992 98.1953 121.88 98.1953 120.507C98.1953 119.135 99.3079 118.023 100.68 118.023C104.894 118.023 108.964 117.177 112.779 115.508C114.022 114.964 115.473 115.519 116.036 116.754C116.599 117.989 116.066 119.448 114.839 120.029C110.694 121.995 106.547 122.992 102.514 122.992Z" fill="#2F3092"/>
<path d="M102.792 88.4152C102.792 94.5293 100.318 99.4883 97.2649 99.4883C94.2117 99.4883 91.7354 94.5293 91.7354 88.4152C91.7354 82.3011 94.2117 77.3478 97.2649 77.3478C100.318 77.3478 102.792 82.3011 102.792 88.4152Z" fill="#2F3092"/>
<path d="M99.947 101.973C93.9487 101.973 89.25 95.8677 89.25 88.0728C89.25 80.2778 93.9487 74.1781 99.947 74.1781C105.945 74.1781 110.64 80.2812 110.64 88.0728C110.64 95.8644 105.943 101.973 99.947 101.973ZM99.947 79.1476C96.8423 79.1476 94.2195 83.2348 94.2195 88.0728C94.2195 92.9137 96.8423 97.0039 99.947 97.0039C103.049 97.0039 105.67 92.9137 105.67 88.0728C105.67 83.2348 103.049 79.1476 99.947 79.1476Z" fill="#2F3092"/>
<path d="M80.5269 88.4153C80.5269 94.5293 78.0534 99.4884 75.0003 99.4884C71.9471 99.4884 69.4707 94.5293 69.4707 88.4153C69.4707 82.3012 71.9471 77.3479 75.0003 77.3479C78.0534 77.3479 80.5269 82.3012 80.5269 88.4153Z" fill="#2F3092"/>
<path d="M77.6834 101.973C71.685 101.973 66.9863 95.8677 66.9863 88.0728C66.9863 80.2778 71.685 74.1781 77.6834 74.1781C83.6817 74.1781 88.3762 80.2812 88.3762 88.0728C88.3762 95.8644 83.6792 101.973 77.6834 101.973ZM77.6834 79.1476C74.5786 79.1476 71.9558 83.2348 71.9558 88.0728C71.9558 92.9137 74.5786 97.0039 77.6834 97.0039C80.7857 97.0039 83.4068 92.9137 83.4068 88.0728C83.4068 83.2348 80.7857 79.1476 77.6834 79.1476Z" fill="#2F3092"/>
<path d="M103.274 55.5323C93.2758 45.5336 80.492 32.7499 75.6319 27.8848C62.8056 15.0586 48.0214 26.8909 60.7781 39.6526C73.5397 52.4092 81.307 60.1765 81.307 60.1765" fill="#2F3092"/>
<path d="M81.307 62.6615C80.671 62.6615 80.0353 62.4188 79.55 61.9336C79.55 61.9336 71.7827 54.1663 59.0217 41.4102C51.6905 34.0763 52.3399 26.8637 56.2354 22.9687C60.5975 18.6078 69.4933 18.2322 77.389 26.128C82.25 30.9936 95.0331 43.7769 105.032 53.7756C106.002 54.7457 106.002 56.3191 105.032 57.2892C104.061 58.2598 102.488 58.2598 101.517 57.2892C91.5185 47.2906 78.7345 34.5062 73.8742 29.6411C68.2614 24.0281 62.4067 23.8253 59.7492 26.4828C57.6027 28.6292 57.6319 32.9906 62.5356 37.8961C75.2966 50.6522 83.0641 58.42 83.0641 58.42C84.0344 59.3901 84.0344 60.9635 83.0641 61.9336C82.5788 62.4189 81.943 62.6615 81.307 62.6615Z" fill="#2F3092"/>
<path d="M137.917 77.1494C137.917 82.5482 136.299 87.5694 133.516 91.7601L132.804 91.0481C129.045 87.289 113.162 71.4055 97.9093 56.153C97.5425 55.7917 97.1812 55.4249 96.8145 55.0636C101.005 52.2806 106.032 50.6625 111.436 50.6625C126.057 50.6625 137.917 62.5226 137.917 77.1494Z" fill="#2F3092"/>
<path d="M133.516 94.2449C132.86 94.2449 132.227 93.9852 131.759 93.517L96.1517 57.9099C95.9789 57.7395 95.795 57.5556 95.6111 57.3717C95.431 57.1921 95.2512 57.0121 95.0697 56.8335C94.5368 56.3079 94.2689 55.5707 94.3405 54.8258C94.4121 54.0809 94.8158 53.4078 95.4392 52.9938C100.183 49.8432 105.715 48.1777 111.435 48.1777C127.407 48.1777 140.401 61.174 140.401 77.1492C140.401 82.8631 138.736 88.3907 135.586 93.1346C135.173 93.7557 134.504 94.1585 133.763 94.2328C133.68 94.2411 133.598 94.2449 133.516 94.2449ZM100.864 55.595L132.983 87.7132C134.592 84.4433 135.432 80.8438 135.432 77.1492C135.432 63.9146 124.667 53.1472 111.435 53.1472C107.737 53.1472 104.135 53.9867 100.864 55.595Z" fill="#2F3092"/>
<path d="M78.9206 62.8716C78.2846 62.8716 77.6488 62.6289 77.1636 62.1436C66.8296 51.8096 50.0144 51.8096 39.6803 62.1436C38.7097 63.1142 37.1368 63.1142 36.1662 62.1436C35.1959 61.1736 35.1959 59.6002 36.1662 58.6301C48.438 46.3578 68.4058 46.3578 80.6776 58.6301C81.6479 59.6002 81.6479 61.1736 80.6776 62.1436C80.1923 62.629 79.5565 62.8716 78.9206 62.8716Z" fill="#2F3092"/>
<path d="M49.9301 91.8611C48.5579 91.8611 47.4453 90.7488 47.4453 89.3764C47.4453 72.0215 61.5647 57.9021 78.9196 57.9021C80.2917 57.9021 81.4043 59.0144 81.4043 60.3868C81.4043 61.7593 80.2917 62.8716 78.9196 62.8716C64.3047 62.8716 52.4148 74.7615 52.4148 89.3764C52.4148 90.7488 51.3022 91.8611 49.9301 91.8611Z" fill="#2F3092"/>
<path d="M15.6293 120.952C14.2571 120.952 13.1445 119.839 13.1445 118.467C13.1445 117.094 14.2571 115.982 15.6293 115.982C106.808 115.982 111.656 106.918 116.789 97.3217C117.436 96.1118 118.941 95.6557 120.152 96.3026C121.362 96.9499 121.818 98.4553 121.171 99.6657C117.729 106.1 113.979 111.316 99.9216 115.024C84.5868 119.068 57.8022 120.952 15.6293 120.952Z" fill="#2F3092"/>
</g>
<defs>
<clipPath id="clip0_610_356">
<rect width="150" height="150" fill="white"/>
</clipPath>
</defs>
</svg>
