<svg width="36" height="36" viewBox="0 0 36 36" fill="none" xmlns="http://www.w3.org/2000/svg">
<mask id="mask0_569_405" style="mask-type:luminance" maskUnits="userSpaceOnUse" x="0" y="0" width="36" height="36">
<path d="M35.7025 0.21225H0.126953V35.7878H35.7025V0.21225Z" fill="white"/>
</mask>
<g mask="url(#mask0_569_405)">
<path d="M17.9332 0.011694C20.7388 0.011694 23.5466 -0.059153 26.3496 0.0272069C31.358 0.18151 35.4122 4.22574 35.7025 9.23927C35.7649 10.317 35.7349 11.3948 35.7362 12.4724C35.7415 16.8124 35.7347 21.1525 35.7399 25.4924C35.7424 27.5779 35.2296 29.5178 34.0373 31.2343C32.0329 34.1197 29.2383 35.5576 25.732 35.5689C20.5351 35.5856 15.338 35.5591 10.1411 35.5776C5.68434 35.5934 2.18323 32.853 0.801058 29.2592C0.355239 28.0999 0.157879 26.8972 0.158543 25.654C0.161613 20.2359 0.0842116 14.8167 0.175632 9.40029C0.231796 6.07182 1.82692 3.47331 4.58364 1.61271C6.28156 0.466722 8.17849 -0.0233143 10.2208 -0.0129445C12.7915 7.98088e-05 15.3624 -0.00979254 17.9332 -0.00979254C17.9332 -0.00265822 17.9332 0.00455965 17.9332 0.011694ZM17.9187 32.3861C17.9187 32.3966 17.9187 32.4071 17.9187 32.4176C20.4753 32.4176 23.0319 32.4216 25.5884 32.4138C26.0291 32.4124 26.4771 32.4029 26.9091 32.3261C30.3214 31.7192 32.572 29.0302 32.5761 25.5567C32.5823 20.4021 32.5793 15.2475 32.5742 10.093C32.5738 9.70724 32.5532 9.3175 32.4962 8.93647C31.9818 5.49659 29.2436 3.14612 25.7631 3.14596C20.567 3.14571 15.3709 3.14745 10.1749 3.14446C9.2689 3.14396 8.39509 3.28914 7.54137 3.6014C5.14735 4.47703 3.31578 7.04003 3.31487 9.56256C3.31305 14.9106 3.31744 20.2587 3.31935 25.6067C3.31952 26.049 3.34299 26.4881 3.41301 26.9273C3.87824 29.8467 6.55217 32.2995 9.50417 32.3715C12.3075 32.4397 15.1137 32.3861 17.9187 32.3861Z" fill="#1AC1F3"/>
<path d="M17.995 8.62114C23.1448 8.72326 27.2338 12.8875 27.1107 17.9298C26.9844 23.1018 22.8066 26.9395 17.9893 26.9385C12.6655 26.9374 8.69978 22.6248 8.78655 17.6956C8.87623 12.6026 13.0244 8.5225 17.995 8.62114ZM23.9555 17.7436C23.8533 14.3373 21.1301 11.6714 17.8631 11.7795C14.4147 11.8934 11.8476 14.5841 11.9471 17.9804C12.0419 21.2172 14.7888 23.8503 17.9765 23.7903C21.3769 23.7262 23.944 21.0142 23.9555 17.7436Z" fill="#1AC1F3"/>
<path d="M29.8046 8.22799C29.8144 9.50663 28.788 10.5562 27.5173 10.5668C26.242 10.5774 25.1969 9.54977 25.1856 8.27395C25.1744 6.99738 26.1985 5.94995 27.472 5.93551C28.7432 5.92108 29.7948 6.95466 29.8046 8.22799Z" fill="#1AC1F3"/>
</g>
</svg>
