<svg width="150" height="150" viewBox="0 0 150 150" fill="none" xmlns="http://www.w3.org/2000/svg">
<g clip-path="url(#clip0_610_648)">
<path d="M107.893 76.9774C104.619 66.2781 97.5769 62.4317 89.5461 62.4317C81.5104 62.4317 75.0004 68.9418 75.0004 76.9774C75.0004 68.9418 68.4904 62.4317 60.4547 62.4317C53.1893 62.4317 46.2668 65.9551 43.0068 74.2144C47.862 61.2589 60.3553 52.0405 75.0004 52.0405C90.6692 52.0405 103.878 62.5907 107.893 76.9774Z" fill="#2F3092"/>
<path d="M107.892 79.4626C106.828 79.4626 105.845 78.7735 105.517 77.7043C102.92 69.2188 97.5465 64.9161 89.5461 64.9161C82.8958 64.9161 77.4851 70.3268 77.4851 76.9774C77.4851 78.3498 76.3726 79.4621 75.0004 79.4621C73.6282 79.4621 72.5156 78.3498 72.5156 76.9774C72.5156 70.3268 67.105 64.9161 60.4547 64.9161C56.3065 64.9161 48.8244 66.2425 45.3181 75.1269C44.8173 76.3955 43.3869 77.023 42.1149 76.5338C40.8419 76.0441 40.2016 74.6198 40.6801 73.3425C46.0119 59.1149 59.8039 49.5559 75.0004 49.5559C91.38 49.5559 105.89 60.5572 110.287 76.3096C110.652 77.6194 109.896 78.9802 108.591 79.3622C108.358 79.4301 108.123 79.4626 107.892 79.4626ZM60.4547 59.9467C66.6064 59.9467 72.0071 63.2254 75.0004 68.1274C77.9937 63.2254 83.3944 59.9467 89.5461 59.9467C90.6635 59.9467 91.8355 60.0151 93.0332 60.1821C87.8558 56.5933 81.6044 54.5254 75.0004 54.5254C68.4347 54.5254 62.1726 56.5894 56.9753 60.1898C58.0983 60.0287 59.2599 59.9467 60.4547 59.9467Z" fill="#2F3092"/>
<path d="M75.0004 122.836C54.797 122.836 38.3604 106.399 38.3604 86.1957C38.3604 82.8398 38.8131 79.5237 39.7061 76.3377C39.7493 76.1679 39.7978 75.9985 39.8514 75.8335C40.0594 75.1148 40.2965 74.3873 40.5564 73.6706L40.6639 73.3876C40.6738 73.359 40.6845 73.3304 40.6957 73.3022C44.0454 64.8148 51.2476 59.9467 60.4547 59.9467C66.6064 59.9467 72.0071 63.2254 75.0004 68.1274C77.9937 63.2254 83.3944 59.9467 89.5461 59.9467C96.7235 59.9467 106.145 62.7751 110.269 76.2504C110.275 76.2684 110.28 76.2863 110.285 76.3043C111.184 79.5005 111.64 82.8282 111.64 86.1957C111.64 106.399 95.2038 122.836 75.0004 122.836ZM45.3319 75.0915C45.3043 75.1682 45.2747 75.2458 45.2441 75.3245L45.214 75.4031C45.001 75.9913 44.7945 76.6265 44.6145 77.2521C44.605 77.2841 44.5953 77.3161 44.5846 77.3482C44.5596 77.4229 44.5378 77.5005 44.5183 77.5782C44.5123 77.6025 44.506 77.6263 44.4992 77.6505C43.7232 80.408 43.3298 83.2834 43.3298 86.1957C43.3298 103.659 57.5373 117.867 75.0004 117.867C92.4635 117.867 106.671 103.659 106.671 86.1957C106.671 83.2926 106.28 80.4269 105.509 77.6772C102.909 69.2101 97.5378 64.9162 89.5461 64.9162C82.8958 64.9162 77.4851 70.3268 77.4851 76.9774C77.4851 78.3498 76.3726 79.4621 75.0004 79.4621C73.6282 79.4621 72.5156 78.3498 72.5156 76.9774C72.5156 70.3268 67.105 64.9162 60.4547 64.9162C56.3122 64.9162 48.8443 66.2396 45.3319 75.0915Z" fill="#2F3092"/>
<path d="M114.477 66.5943C125.066 66.5943 133.651 58.0097 133.651 47.4202C133.651 36.8306 125.066 28.246 114.477 28.246C103.887 28.246 95.3027 36.8306 95.3027 47.4202C95.3027 58.0097 103.887 66.5943 114.477 66.5943Z" fill="#2F3092"/>
<path d="M114.477 69.0791C102.535 69.0791 92.8184 59.3628 92.8184 47.4201C92.8184 35.4773 102.535 25.761 114.477 25.761C126.42 25.761 136.136 35.4773 136.136 47.4201C136.136 59.3628 126.42 69.0791 114.477 69.0791ZM114.477 30.7305C105.275 30.7305 97.7878 38.2173 97.7878 47.4201C97.7878 56.6229 105.275 64.1096 114.477 64.1096C123.68 64.1096 131.167 56.6229 131.167 47.4201C131.167 38.2173 123.68 30.7305 114.477 30.7305Z" fill="#2F3092"/>
<path d="M75.3505 101.652C79.5535 101.652 82.9608 98.2443 82.9608 94.0412C82.9608 89.8382 79.5535 86.431 75.3505 86.431C71.1475 86.431 67.7402 89.8382 67.7402 94.0412C67.7402 98.2443 71.1475 101.652 75.3505 101.652Z" fill="#2F3092"/>
<path d="M75.3512 113.267C66.1511 113.267 58.666 105.783 58.666 96.5826C58.666 95.2102 59.7786 94.0979 61.1508 94.0979C62.5229 94.0979 63.6355 95.2102 63.6355 96.5826C63.6355 103.042 68.8911 108.298 75.3512 108.298C81.8113 108.298 87.0666 103.042 87.0666 96.5826C87.0666 95.2102 88.1792 94.0979 89.5513 94.0979C90.9235 94.0979 92.0361 95.2102 92.0361 96.5826C92.0361 105.783 84.5513 113.267 75.3512 113.267Z" fill="#2F3092"/>
<path d="M66.7828 86.3859C65.4106 86.3859 64.2981 85.2736 64.2981 83.9012C64.2981 81.7828 62.5748 80.0595 60.4567 80.0595C58.3386 80.0595 56.615 81.7828 56.615 83.9012C56.615 85.2736 55.5024 86.3859 54.1303 86.3859C52.7581 86.3859 51.6455 85.2736 51.6455 83.9012C51.6455 79.0428 55.598 75.09 60.4567 75.09C65.3153 75.09 69.2676 79.0428 69.2676 83.9012C69.2676 85.2736 68.155 86.3859 66.7828 86.3859Z" fill="#2F3092"/>
<path d="M42.1093 79.4626C41.9103 79.4626 41.7084 79.4388 41.5068 79.3884C40.1751 79.0569 39.3647 77.7082 39.6963 76.3766C39.7405 76.1995 39.7905 76.0228 39.8458 75.8505C40.0557 75.0891 40.2996 74.3427 40.5709 73.6318L40.6616 73.393C41.1156 72.0972 42.5327 71.4173 43.8285 71.8696C45.1235 72.3234 45.8053 73.7414 45.3516 75.0362C45.3178 75.1323 45.2812 75.2289 45.2428 75.3274L45.214 75.4031C44.9932 75.9816 44.7944 76.5926 44.6236 77.2191C44.6117 77.2623 44.5986 77.3055 44.5845 77.3482C44.5595 77.4229 44.5377 77.5005 44.5183 77.5782C44.2368 78.708 43.2233 79.4626 42.1093 79.4626Z" fill="#2F3092"/>
<path d="M96.5094 86.4476C95.1372 86.4476 94.0246 85.3352 94.0246 83.9628C94.0246 81.8445 92.3013 80.1212 90.183 80.1212C88.0646 80.1212 86.3416 81.8445 86.3416 83.9628C86.3416 85.3352 85.229 86.4476 83.8568 86.4476C82.4846 86.4476 81.3721 85.3352 81.3721 83.9628C81.3721 79.1045 85.3246 75.1517 90.183 75.1517C95.0413 75.1517 98.9941 79.1045 98.9941 83.9628C98.9941 85.3352 97.8816 86.4476 96.5094 86.4476Z" fill="#2F3092"/>
<path d="M35.5228 66.5943C46.1123 66.5943 54.6969 58.0097 54.6969 47.4202C54.6969 36.8306 46.1123 28.246 35.5228 28.246C24.9332 28.246 16.3486 36.8306 16.3486 47.4202C16.3486 58.0097 24.9332 66.5943 35.5228 66.5943Z" fill="#2F3092"/>
<path d="M35.5233 69.0791C23.5805 69.0791 13.8643 59.3628 13.8643 47.4201C13.8643 35.4773 23.5805 25.761 35.5233 25.761C47.4661 25.761 57.1821 35.4773 57.1821 47.4201C57.1821 59.3628 47.4661 69.0791 35.5233 69.0791ZM35.5233 30.7305C26.3207 30.7305 18.8337 38.2173 18.8337 47.4201C18.8337 56.6229 26.3207 64.1096 35.5233 64.1096C44.7258 64.1096 52.2126 56.6229 52.2126 47.4201C52.2126 38.2173 44.7258 30.7305 35.5233 30.7305Z" fill="#2F3092"/>
<path d="M55.8206 102.263C55.0865 102.263 54.3598 101.939 53.8694 101.319C53.0184 100.242 53.2016 98.6796 54.2783 97.8288L61.5389 92.0916C62.616 91.2404 64.178 91.4238 65.0289 92.5007C65.8799 93.5771 65.6967 95.1397 64.62 95.9905L57.3594 101.728C56.9032 102.088 56.36 102.263 55.8206 102.263Z" fill="#2F3092"/>
<path d="M94.8005 102.263C94.2611 102.263 93.7177 102.088 93.2616 101.728L86.0009 95.9906C84.9243 95.1398 84.7411 93.5772 85.592 92.5007C86.4425 91.4239 88.0052 91.2404 89.0821 92.0917L96.3427 97.8289C97.4193 98.6796 97.6026 100.242 96.7516 101.319C96.2614 101.939 95.5345 102.263 94.8005 102.263Z" fill="#2F3092"/>
</g>
<defs>
<clipPath id="clip0_610_648">
<rect width="150" height="150" fill="white"/>
</clipPath>
</defs>
</svg>
