<svg width="233" height="233" viewBox="0 0 233 233" fill="none" xmlns="http://www.w3.org/2000/svg">
<g clip-path="url(#clip0_599_213)">
<path d="M159.264 87.5885H72.7949V201.273H159.264V87.5885Z" stroke="#2F3092" stroke-width="10" stroke-linecap="round" stroke-linejoin="round"/>
<path d="M116.03 129.617C123.545 129.617 129.637 123.525 129.637 116.01C129.637 108.494 123.545 102.402 116.03 102.402C108.514 102.402 102.422 108.494 102.422 116.01C102.422 123.525 108.514 129.617 116.03 129.617Z" stroke="#1073BC" stroke-width="10" stroke-linecap="round" stroke-linejoin="round"/>
<path d="M116.031 188.182C128.778 188.182 139.112 177.848 139.112 165.1C139.112 152.353 128.778 142.019 116.031 142.019C103.283 142.019 92.9492 152.353 92.9492 165.1C92.9492 177.848 103.283 188.182 116.031 188.182Z" stroke="#1073BC" stroke-width="10" stroke-linecap="round" stroke-linejoin="round"/>
<path d="M42.5176 97.1377C42.5176 75.0675 60.4091 57.176 82.4793 57.176" stroke="#2F3092" stroke-width="10" stroke-linecap="round" stroke-linejoin="round"/>
<path d="M151.588 57.176C173.658 57.176 191.55 75.0675 191.55 97.1377" stroke="#2F3092" stroke-width="10" stroke-linecap="round" stroke-linejoin="round"/>
<path d="M151.588 37.1952C184.693 37.1952 211.53 64.0324 211.53 97.1377" stroke="#2F3092" stroke-width="10" stroke-linecap="round" stroke-linejoin="round"/>
<path d="M82.4952 37.1802C49.3898 37.1802 22.5527 64.0174 22.5527 97.1227" stroke="#2F3092" stroke-width="10" stroke-linecap="round" stroke-linejoin="round"/>
</g>
<defs>
<clipPath id="clip0_599_213">
<rect width="232.019" height="232.019" fill="white" transform="translate(0.0195312)"/>
</clipPath>
</defs>
</svg>
