<svg width="150" height="150" viewBox="0 0 150 150" fill="none" xmlns="http://www.w3.org/2000/svg">
<g clip-path="url(#clip0_610_375)">
<path d="M74.999 121.974C67.7219 121.974 60.6855 119.446 55.0776 114.837C43.194 114.587 33.6035 104.844 33.6035 92.9045C33.6035 85.6783 37.1608 78.9157 43.1193 74.8153C44.8972 73.5914 46.8238 72.647 48.8674 71.9962C49.362 58.0074 60.8942 46.7799 74.999 46.7799C89.1038 46.7799 100.643 58.0093 101.135 72.0006C103.174 72.6494 105.1 73.5918 106.881 74.8134C112.842 78.9176 116.399 85.6798 116.399 92.9045C116.399 104.846 106.807 114.589 94.9209 114.837C89.3171 119.446 82.2805 121.974 74.999 121.974ZM55.9885 109.868C56.5888 109.868 57.17 110.085 57.6235 110.481C62.4374 114.688 68.6083 117.004 74.999 117.004C81.3941 117.004 87.5647 114.688 92.3738 110.482C92.8472 110.068 93.4587 109.846 94.0886 109.869C94.2143 109.873 94.3371 109.872 94.4567 109.873C103.815 109.873 111.43 102.261 111.43 92.9045C111.43 87.3153 108.677 82.0838 104.066 78.9089C102.259 77.6695 100.256 76.8007 98.1146 76.3305C96.9341 76.0708 96.1115 74.9993 96.1657 73.7919C96.1785 73.5099 96.1822 73.2192 96.1822 72.9329C96.1822 61.2522 86.6794 51.7494 74.999 51.7494C63.3185 51.7494 53.8204 61.2522 53.8204 72.9329C53.8204 73.2187 53.8243 73.5051 53.8369 73.787C53.891 74.9945 53.0692 76.0655 51.8891 76.3252C49.7431 76.7979 47.7406 77.667 45.9369 78.9089C41.3256 82.0823 38.573 87.3143 38.573 92.9045C38.573 102.261 46.1871 109.873 55.5459 109.873C55.6668 109.873 55.7866 109.873 55.9067 109.869C55.9342 109.868 55.9613 109.868 55.9885 109.868Z" fill="#2F3092"/>
<path d="M58.7761 50.478C58.3497 50.478 57.9176 50.3678 57.523 50.1368L56.1564 49.3366C54.972 48.6431 54.5743 47.1212 55.2678 45.937C55.961 44.7529 57.4832 44.3549 58.6673 45.0484L60.0339 45.8487C61.2183 46.5422 61.616 48.0641 60.9225 49.2483C60.4603 50.0379 59.6294 50.478 58.7761 50.478Z" fill="#2F3092"/>
<path d="M44.4986 68.5914C43.7114 68.5919 42.9371 68.2187 42.4545 67.5228L28.8728 47.9379C24.3495 41.4116 24.6997 33.4458 29.6694 29.8031C30.4685 29.2169 31.5395 29.1625 32.3946 29.6629L35.0582 31.2236C36.2421 31.9176 36.6396 33.44 35.9458 34.6236C35.2518 35.8078 33.7302 36.2043 32.5458 35.5117L31.5655 34.9372C30.0331 37.3545 30.5233 41.595 32.9568 45.1062L46.5382 64.6905C47.32 65.8184 47.0401 67.3665 45.9122 68.1483C45.4805 68.4477 44.987 68.5914 44.4986 68.5914Z" fill="#2F3092"/>
<path d="M105.494 68.5914C105.006 68.5914 104.512 68.4477 104.081 68.1483C102.953 67.3665 102.673 65.8184 103.455 64.6906L117.036 45.1057C119.471 41.5941 119.959 37.3516 118.423 34.9352L117.471 35.4924C116.286 36.1864 114.764 35.7875 114.071 34.6023C113.378 33.4182 113.777 31.8963 114.961 31.2033L117.595 29.6625C118.45 29.1626 119.519 29.2174 120.318 29.8022C125.292 33.4439 125.645 41.4101 121.12 47.9375L107.539 67.5228C107.056 68.2187 106.282 68.5914 105.494 68.5914Z" fill="#2F3092"/>
<path d="M91.217 50.478C90.3631 50.478 89.5321 50.0374 89.0698 49.2473C88.3771 48.0626 88.7755 46.5407 89.9601 45.8477L91.3367 45.0426C92.522 44.3501 94.0432 44.749 94.7359 45.9332C95.4287 47.1178 95.0303 48.6397 93.8456 49.3327L92.4691 50.1378C92.0748 50.3683 91.6429 50.478 91.217 50.478Z" fill="#2F3092"/>
<path d="M75.0004 100.339C79.1071 100.339 82.4362 97.0097 82.4362 92.9029C82.4362 88.7962 79.1071 85.467 75.0004 85.467C70.8936 85.467 67.5645 88.7962 67.5645 92.9029C67.5645 97.0097 70.8936 100.339 75.0004 100.339Z" fill="#2F3092"/>
<path d="M88.199 90.0612C91.8437 90.0612 94.7984 87.1065 94.7984 83.4618C94.7984 79.8171 91.8437 76.8624 88.199 76.8624C84.5543 76.8624 81.5996 79.8171 81.5996 83.4618C81.5996 87.1065 84.5543 90.0612 88.199 90.0612Z" fill="#2F3092"/>
<path d="M61.8015 90.0612C65.4463 90.0612 68.4009 87.1065 68.4009 83.4618C68.4009 79.8171 65.4463 76.8624 61.8015 76.8624C58.1568 76.8624 55.2021 79.8171 55.2021 83.4618C55.2021 87.1065 58.1568 90.0612 61.8015 90.0612Z" fill="#2F3092"/>
<path d="M106.221 70.0498C106.221 72.3905 105.964 74.6693 105.474 76.8624C103.443 75.4685 101.135 74.4504 98.6473 73.9033C98.6615 73.5846 98.6663 73.2563 98.6663 72.9328C98.6663 59.8594 88.0715 49.2647 74.9983 49.2647C61.925 49.2647 51.335 59.8595 51.335 72.9328C51.335 73.2563 51.3397 73.5798 51.354 73.8986C48.8707 74.4456 46.5586 75.4637 44.5272 76.8624C44.0371 74.6693 43.7803 72.3905 43.7803 70.0498C43.7803 52.8043 57.7575 38.827 75.0031 38.827C92.2486 38.827 106.221 52.8043 106.221 70.0498Z" fill="#2F3092"/>
<path d="M105.475 79.3471C104.98 79.3471 104.489 79.1991 104.069 78.9113C102.259 77.6694 100.255 76.8007 98.1142 76.3304C96.9337 76.0708 96.1111 74.9992 96.1653 73.7918C96.1781 73.5098 96.1818 73.2192 96.1818 72.9328C96.1818 61.2521 86.6791 51.7494 74.9986 51.7494C63.3181 51.7494 53.82 61.2521 53.82 72.9328C53.82 73.2187 53.8239 73.505 53.8365 73.787C53.8906 74.9944 53.0688 76.0655 51.8888 76.3251C49.7427 76.7978 47.7402 77.667 45.9366 78.9088C45.2564 79.3772 44.388 79.4762 43.6197 79.1753C42.8512 78.8739 42.2827 78.21 42.1027 77.4044C41.5674 75.0094 41.2959 72.5349 41.2959 70.0496C41.2959 51.463 56.4172 36.342 75.0035 36.342C93.5898 36.342 108.706 51.463 108.706 70.0496C108.706 72.5334 108.435 75.0079 107.9 77.4039C107.72 78.209 107.152 78.8724 106.384 79.1748C106.09 79.2903 105.782 79.3471 105.475 79.3471ZM101.135 72.0006C101.974 72.2675 102.794 72.5844 103.592 72.9499C103.688 71.989 103.737 71.0203 103.737 70.0497C103.737 54.2037 90.8471 41.3116 75.0034 41.3116C59.1598 41.3116 46.2653 54.2037 46.2653 70.0497C46.2653 71.0194 46.3136 71.987 46.4097 72.946C47.2076 72.5806 48.0275 72.2637 48.867 71.9963C49.3615 58.0075 60.8938 46.78 74.9986 46.78C89.1034 46.78 100.643 58.0094 101.135 72.0006Z" fill="#2F3092"/>
<path d="M68.6658 107.44C63.8029 107.44 59.8467 103.484 59.8467 98.6213C59.8467 97.2489 60.9592 96.1366 62.3314 96.1366C63.7036 96.1366 64.8162 97.2489 64.8162 98.6213C64.8162 100.744 66.5431 102.471 68.6658 102.471C70.7886 102.471 72.5152 100.744 72.5152 98.6213C72.5152 97.2489 73.6278 96.1366 75 96.1366C76.3722 96.1366 77.4847 97.2489 77.4847 98.6213C77.4847 103.484 73.5286 107.44 68.6658 107.44Z" fill="#2F3092"/>
<path d="M81.3348 107.44C76.4718 107.44 72.5156 103.484 72.5156 98.6213C72.5156 97.2489 73.6282 96.1366 75.0004 96.1366C76.3725 96.1366 77.4851 97.2489 77.4851 98.6213C77.4851 100.744 79.2121 102.471 81.3348 102.471C83.4575 102.471 85.1842 100.744 85.1842 98.6213C85.1842 97.2489 86.2968 96.1366 87.6689 96.1366C89.0411 96.1366 90.1537 97.2489 90.1537 98.6213C90.1537 103.484 86.1975 107.44 81.3348 107.44Z" fill="#2F3092"/>
<path d="M68.9358 76.2543C68.8235 76.2543 68.7097 76.2465 68.5954 76.231L58.6008 74.8614C57.2413 74.6751 56.2901 73.4215 56.4764 72.0622C56.6625 70.7024 57.9173 69.7532 59.2754 69.9376L69.2699 71.3071C70.6295 71.4935 71.5807 72.747 71.3944 74.1063C71.2237 75.3516 70.1583 76.2543 68.9358 76.2543Z" fill="#2F3092"/>
<path d="M81.2143 76.2339C79.9918 76.2339 78.9263 75.3313 78.7557 74.086C78.5694 72.7266 79.5206 71.4731 80.8801 71.2867L90.8747 69.9172C92.2316 69.7342 93.4875 70.6821 93.6736 72.0419C93.86 73.4012 92.9088 74.6547 91.5492 74.8411L81.5547 76.2106C81.4404 76.2261 81.3266 76.2339 81.2143 76.2339Z" fill="#2F3092"/>
<path d="M57.4128 47.1926L53.8595 57.0869L33.8027 33.3674L57.4128 47.1926Z" fill="#2F3092"/>
<path d="M53.8587 59.5716C53.1351 59.5716 52.4385 59.2552 51.9617 58.6912L31.9049 34.9721C31.1233 34.0476 31.1213 32.6946 31.9005 31.7681C32.6803 30.8417 34.0133 30.6117 35.0576 31.2236L58.6678 45.0484C59.7 45.6526 60.155 46.9066 59.7507 48.0325L56.1974 57.9269C55.8975 58.7625 55.1741 59.3745 54.3003 59.5323C54.153 59.5584 54.0053 59.5716 53.8587 59.5716ZM45.0702 42.8447L52.976 52.1945L54.3766 48.2941L45.0702 42.8447Z" fill="#2F3092"/>
<path d="M116.217 33.3476L96.145 57.0868L92.5918 47.1876L116.217 33.3476Z" fill="#2F3092"/>
<path d="M96.1449 59.5716C95.9981 59.5716 95.8504 59.5584 95.7031 59.5323C94.8293 59.374 94.1059 58.7621 93.806 57.9264L90.2529 48.0272C89.8488 46.9019 90.3038 45.6483 91.3356 45.0436L114.961 31.2038C116.005 30.5928 117.338 30.8218 118.118 31.7483C118.897 32.6748 118.896 34.0277 118.114 34.9523L98.0422 58.6913C97.5654 59.2552 96.8685 59.5716 96.1449 59.5716ZM95.6269 48.2893L97.0282 52.1935L104.945 42.8306L95.6269 48.2893Z" fill="#2F3092"/>
</g>
<defs>
<clipPath id="clip0_610_375">
<rect width="150" height="150" fill="white"/>
</clipPath>
</defs>
</svg>
