<svg width="37" height="38" viewBox="0 0 37 38" fill="none" xmlns="http://www.w3.org/2000/svg">
<mask id="mask0_569_564" style="mask-type:alpha" maskUnits="userSpaceOnUse" x="0" y="0" width="37" height="38">
<path d="M36.7663 7.7123L36.7935 30.2443C36.7979 33.9749 33.7726 37.0075 30.042 37.012L7.51004 37.0391C3.77942 37.0436 0.746799 34.0183 0.742306 30.2877L0.715172 7.75571C0.710679 4.0251 3.736 0.992477 7.46662 0.987984L29.9986 0.960849C33.7292 0.956356 36.7618 3.98168 36.7663 7.7123Z" fill="url(#paint0_radial_569_564)"/>
</mask>
<g mask="url(#mask0_569_564)">
<mask id="path-2-inside-1_569_564" fill="white">
<path d="M16.1871 16.1744V15.1444C15.8299 15.0878 15.4694 15.0566 15.1072 15.0515C11.6024 15.0439 8.49959 17.3142 7.44673 20.6575C6.39387 24 7.6367 27.6389 10.5133 29.6407C8.35859 27.3349 7.75997 23.9772 8.98591 21.0687C10.211 18.1602 13.0319 16.2437 16.1871 16.1744Z"/>
</mask>
<path d="M16.1871 16.1744V15.1444C15.8299 15.0878 15.4694 15.0566 15.1072 15.0515C11.6024 15.0439 8.49959 17.3142 7.44673 20.6575C6.39387 24 7.6367 27.6389 10.5133 29.6407C8.35859 27.3349 7.75997 23.9772 8.98591 21.0687C10.211 18.1602 13.0319 16.2437 16.1871 16.1744Z" fill="#EE7601"/>
<path d="M16.1871 16.1744L16.4832 29.6711L29.687 29.3814V16.1744H16.1871ZM16.1871 15.1444H29.687V3.61443L18.2989 1.81072L16.1871 15.1444ZM15.1072 15.0515L15.296 1.55296L15.2162 1.55184L15.1364 1.55167L15.1072 15.0515ZM7.44673 20.6575L20.3229 24.7134L20.3232 24.7125L7.44673 20.6575ZM10.5133 29.6407L2.80218 40.7215L20.3767 20.4233L10.5133 29.6407ZM8.98591 21.0687L21.4259 26.3121L21.4272 26.3091L8.98591 21.0687ZM29.687 16.1744V15.1444H2.68716V16.1744H29.687ZM18.2989 1.81072C17.313 1.65456 16.3098 1.56714 15.296 1.55296L14.9184 28.5501C14.629 28.5461 14.3469 28.5211 14.0752 28.4781L18.2989 1.81072ZM15.1364 1.55167C5.72815 1.53127 -2.6031 7.62648 -5.42978 16.6026L20.3232 24.7125C19.6023 27.0019 17.4767 28.5566 15.0779 28.5514L15.1364 1.55167ZM-5.42948 16.6016C-8.25759 25.58 -4.9182 35.349 2.80218 40.7215L18.2244 18.5598C20.1916 19.9287 21.0453 22.4201 20.3229 24.7134L-5.42948 16.6016ZM20.3767 20.4233C21.857 22.0074 22.2684 24.3134 21.4259 26.3121L-3.45409 15.8253C-6.74843 23.6411 -5.13987 32.6625 0.649824 38.858L20.3767 20.4233ZM21.4272 26.3091C20.5846 28.3094 18.647 29.6236 16.4832 29.6711L15.8909 2.67778C7.41676 2.86371 -0.162613 8.01089 -3.45538 15.8283L21.4272 26.3091Z" fill="#1AC1F3" mask="url(#path-2-inside-1_569_564)"/>
<mask id="path-4-inside-2_569_564" fill="white">
<path d="M16.3828 27.8415C18.3425 27.8381 19.9534 26.2948 20.0387 24.3378V6.86964H23.2302C23.1652 6.50407 23.134 6.13428 23.1373 5.76364H18.7722V23.2149C18.6996 25.182 17.0853 26.7406 15.1164 26.7431C14.5279 26.738 13.9495 26.5937 13.4277 26.321C14.1133 27.2708 15.2118 27.8356 16.3828 27.8415Z"/>
</mask>
<path d="M16.3828 27.8415C18.3425 27.8381 19.9534 26.2948 20.0387 24.3378V6.86964H23.2302C23.1652 6.50407 23.134 6.13428 23.1373 5.76364H18.7722V23.2149C18.6996 25.182 17.0853 26.7406 15.1164 26.7431C14.5279 26.738 13.9495 26.5937 13.4277 26.321C14.1133 27.2708 15.2118 27.8356 16.3828 27.8415Z" fill="#EE7601"/>
<path d="M16.3828 27.8415L16.3147 41.3412L16.3604 41.3415L16.4061 41.3414L16.3828 27.8415ZM20.0387 24.3378L33.5258 24.9254L33.5386 24.6317V24.3378H20.0387ZM20.0387 6.86964V-6.63025H6.53881V6.86964H20.0387ZM23.2302 6.86964V20.3695H39.3427L36.5216 4.50596L23.2302 6.86964ZM23.1373 5.76364L36.6367 5.88665L36.7608 -7.73625H23.1373V5.76364ZM18.7722 5.76364V-7.73625H5.27234V5.76364H18.7722ZM18.7722 23.2149L32.2629 23.7128L32.2721 23.4639V23.2149H18.7722ZM15.1164 26.7431L15.0001 40.2425L15.0669 40.2431L15.1337 40.243L15.1164 26.7431ZM13.4277 26.321L19.6807 14.3565L2.4815 34.222L13.4277 26.321ZM16.4061 41.3414C25.5743 41.3256 33.1259 34.1036 33.5258 24.9254L6.55161 23.7501C6.78099 18.486 11.1107 14.3507 16.3596 14.3416L16.4061 41.3414ZM33.5386 24.3378V6.86964H6.53881V24.3378H33.5386ZM20.0387 20.3695H23.2302V-6.63025H20.0387V20.3695ZM36.5216 4.50596C36.601 4.95288 36.641 5.41545 36.6367 5.88665L9.638 5.64063C9.62696 6.85311 9.72935 8.05527 9.93886 9.23333L36.5216 4.50596ZM23.1373 -7.73625H18.7722V19.2635H23.1373V-7.73625ZM5.27234 5.76364V23.2149H32.2721V5.76364H5.27234ZM5.28153 22.7169C5.47645 17.4361 9.81029 13.25 15.099 13.2432L15.1337 40.243C24.3603 40.2311 31.9228 32.928 32.2629 23.7128L5.28153 22.7169ZM15.2326 13.2437C16.7783 13.257 18.3038 13.6369 19.6807 14.3565L7.17475 38.2854C9.59526 39.5504 12.2774 40.2191 15.0001 40.2425L15.2326 13.2437ZM2.4815 34.222C5.69287 38.6711 10.835 41.3136 16.3147 41.3412L16.451 14.3418C19.5885 14.3576 22.5338 15.8704 24.374 18.4199L2.4815 34.222Z" fill="#1AC1F3" mask="url(#path-4-inside-2_569_564)"/>
<mask id="path-6-inside-3_569_564" fill="white">
<path d="M29.1919 12.7965V11.8255C28.0175 11.8264 26.8692 11.4794 25.8906 10.8293C26.7476 11.8264 27.9077 12.5162 29.1919 12.7965Z"/>
</mask>
<path d="M29.1919 12.7965V11.8255C28.0175 11.8264 26.8692 11.4794 25.8906 10.8293C26.7476 11.8264 27.9077 12.5162 29.1919 12.7965Z" fill="#EE7601"/>
<path d="M29.1919 12.7965L26.3131 25.9858L42.6918 29.5608V12.7965H29.1919ZM29.1919 11.8255H42.6918V-1.68407L29.1822 -1.67436L29.1919 11.8255ZM25.8906 10.8293L33.3609 -0.415379L15.6526 19.6287L25.8906 10.8293ZM42.6918 12.7965V11.8255H15.692V12.7965H42.6918ZM29.1822 -1.67436C30.6754 -1.67543 32.1284 -1.23418 33.3609 -0.415379L18.4204 22.0739C21.61 24.1929 25.3595 25.3282 29.2016 25.3254L29.1822 -1.67436ZM15.6526 19.6287C18.4297 22.8599 22.1776 25.0832 26.3131 25.9858L32.0707 -0.392921C33.6378 -0.0508709 35.0655 0.792875 36.1287 2.0299L15.6526 19.6287Z" fill="#1AC1F3" mask="url(#path-6-inside-3_569_564)"/>
<mask id="path-8-inside-4_569_564" fill="white">
<path d="M25.8912 10.8293C24.9278 9.73172 24.3959 8.32178 24.3967 6.86118H23.2324C23.5364 8.49316 24.498 9.92759 25.8912 10.8293Z"/>
</mask>
<path d="M25.8912 10.8293L18.5558 22.1624L36.0371 1.92387L25.8912 10.8293ZM24.3967 6.86118L37.8966 6.86898L37.9044 -6.63872H24.3967V6.86118ZM23.2324 6.86118V-6.63872H6.98607L9.96075 9.33298L23.2324 6.86118ZM36.0371 1.92387C37.2319 3.28503 37.8977 5.04138 37.8966 6.86898L10.8968 6.85337C10.8941 11.6022 12.6237 16.1784 15.7452 19.7347L36.0371 1.92387ZM24.3967 -6.63872H23.2324V20.3611H24.3967V-6.63872ZM9.96075 9.33298C10.9438 14.6113 14.054 19.2486 18.5558 22.1624L33.2265 -0.503862C34.9421 0.606578 36.1289 2.37507 36.5041 4.38937L9.96075 9.33298Z" fill="#1AC1F3" mask="url(#path-8-inside-4_569_564)"/>
<mask id="path-10-inside-5_569_564" fill="white">
<path d="M15.1072 19.4156C13.4253 19.4241 11.9655 20.5765 11.5662 22.2102C11.1668 23.843 11.9301 25.5383 13.4177 26.3218C12.6114 25.2091 12.4983 23.7375 13.1231 22.5141C13.7487 21.2908 15.0076 20.5208 16.3821 20.5225C16.7486 20.5259 17.1125 20.5833 17.4628 20.6905V16.2496C17.1049 16.1964 16.7435 16.1677 16.3821 16.1652H16.1879V19.5423C15.8359 19.4477 15.472 19.4055 15.1072 19.4156Z"/>
</mask>
<path d="M15.1072 19.4156L15.175 32.9154L15.3285 32.9146L15.482 32.9103L15.1072 19.4156ZM11.5662 22.2102L24.6795 25.4175L24.6799 25.4159L11.5662 22.2102ZM13.4177 26.3218L7.12706 38.2665L24.3494 18.4006L13.4177 26.3218ZM13.1231 22.5141L1.10375 16.3673L1.10039 16.3739L13.1231 22.5141ZM16.3821 20.5225L16.5065 7.02316L16.4526 7.02266L16.3987 7.02259L16.3821 20.5225ZM17.4628 20.6905L13.5125 33.5995L30.9627 38.9394V20.6905H17.4628ZM17.4628 16.2496H30.9627V4.6073L19.4469 2.89628L17.4628 16.2496ZM16.3821 16.1652L16.4767 2.6656L16.4294 2.66527H16.3821V16.1652ZM16.1879 16.1652V2.66527H2.68804V16.1652H16.1879ZM16.1879 19.5423L12.6863 32.5801L29.6878 37.1463V19.5423H16.1879ZM15.0394 5.9159C7.15903 5.95546 0.322319 11.3551 -1.5476 19.0045L24.6799 25.4159C23.6087 29.7979 19.6916 32.8927 15.175 32.9154L15.0394 5.9159ZM-1.54721 19.0029C-3.41846 26.6538 0.158044 34.5962 7.12706 38.2665L19.7084 14.3772C23.7021 16.4804 25.7521 21.0323 24.6795 25.4175L-1.54721 19.0029ZM24.3494 18.4006C26.5251 21.4032 26.8259 25.3645 25.1458 28.6543L1.10039 16.3739C-1.82938 22.1105 -1.30226 29.015 2.48607 34.2431L24.3494 18.4006ZM25.1424 28.6609C23.4595 31.9516 20.0713 34.0269 16.3655 34.0224L16.3987 7.02259C9.94387 7.01466 4.0379 10.6299 1.10375 16.3673L25.1424 28.6609ZM16.2577 34.0218C15.2963 34.0129 14.3726 33.8627 13.5125 33.5995L21.4131 7.78149C19.8523 7.30384 18.2008 7.03877 16.5065 7.02316L16.2577 34.0218ZM30.9627 20.6905V16.2496H3.96295V20.6905H30.9627ZM19.4469 2.89628C18.4819 2.75291 17.4891 2.67269 16.4767 2.6656L16.2875 29.6647C15.9979 29.6627 15.7278 29.6399 15.4788 29.6029L19.4469 2.89628ZM16.3821 2.66527H16.1879V29.6651H16.3821V2.66527ZM2.68804 16.1652V19.5423H29.6878V16.1652H2.68804ZM19.6896 6.50441C18.0577 6.06613 16.3873 5.87497 14.7324 5.92094L15.482 32.9103C14.5566 32.936 13.614 32.8293 12.6863 32.5801L19.6896 6.50441Z" fill="#1AC1F3" mask="url(#path-10-inside-5_569_564)"/>
<mask id="path-12-inside-6_569_564" fill="white">
<path d="M29.1918 12.7965V16.1736C27.0177 16.1694 24.8993 15.4813 23.1381 14.2065V23.0798C23.1288 27.508 19.5363 31.092 15.1087 31.092C13.4648 31.0954 11.8598 30.5871 10.5156 29.6399C12.7581 32.052 16.2485 32.8456 19.3142 31.6408C22.3799 30.4368 24.3953 27.4793 24.3961 24.1858V15.3378C26.1633 16.6042 28.2842 17.283 30.4583 17.2796V12.9316C30.0328 12.9299 29.6081 12.8843 29.1918 12.7965Z"/>
</mask>
<path d="M29.1918 12.7965L31.9782 -0.412696L15.6919 -3.84821V12.7965H29.1918ZM29.1918 16.1736L29.1656 29.6735L42.6917 29.6998V16.1736H29.1918ZM23.1381 14.2065L31.0538 3.27079L9.63821 -12.2308V14.2065H23.1381ZM23.1381 23.0798L36.638 23.1081L36.638 23.094V23.0798H23.1381ZM15.1087 31.092V17.5921H15.0948L15.081 17.5921L15.1087 31.092ZM10.5156 29.6399L18.2924 18.605L0.628484 38.8318L10.5156 29.6399ZM19.3142 31.6408L14.3795 19.0751L14.3765 19.0763L19.3142 31.6408ZM24.3961 24.1858L37.896 24.1893V24.1858H24.3961ZM24.3961 15.3378L32.2599 4.36472L10.8962 -10.9454V15.3378H24.3961ZM30.4583 17.2796L30.4793 30.7795L43.9582 30.7586V17.2796H30.4583ZM30.4583 12.9316H43.9582V-0.514843L30.5119 -0.568195L30.4583 12.9316ZM15.6919 12.7965V16.1736H42.6917V12.7965H15.6919ZM29.218 2.67375C29.876 2.67503 30.5182 2.88306 31.0538 3.27079L15.2224 25.1421C19.2805 28.0796 24.1594 29.6638 29.1656 29.6735L29.218 2.67375ZM9.63821 14.2065V23.0798H36.638V14.2065H9.63821ZM9.63824 23.0515C9.64457 20.0334 12.0931 17.5921 15.1087 17.5921V44.5919C26.9794 44.5919 36.6131 34.9827 36.638 23.1081L9.63824 23.0515ZM15.081 17.5921C16.2387 17.5898 17.3592 17.9473 18.2924 18.605L2.73884 40.6747C6.36039 43.227 10.6909 44.601 15.1364 44.5919L15.081 17.5921ZM0.628484 38.8318C6.65092 45.3097 16.0229 47.4392 24.2519 44.2053L14.3765 19.0763C16.4742 18.252 18.8653 18.7942 20.4028 20.4479L0.628484 38.8318ZM24.2489 44.2065C32.4833 40.9727 37.8938 33.0296 37.896 24.1893L10.8962 24.1824C10.8968 21.9291 12.2765 19.901 14.3795 19.0751L24.2489 44.2065ZM37.896 24.1858V15.3378H10.8962V24.1858H37.896ZM16.5324 26.3108C20.6012 29.2268 25.4809 30.7873 30.4793 30.7795L30.4373 3.77975C31.0875 3.77874 31.7253 3.98161 32.2599 4.36472L16.5324 26.3108ZM43.9582 17.2796V12.9316H16.9584V17.2796H43.9582ZM30.5119 -0.568195C31.0138 -0.566204 31.5047 -0.512596 31.9782 -0.412696L26.4054 26.0057C27.7115 26.2812 29.0517 26.426 30.4047 26.4314L30.5119 -0.568195Z" fill="#1AC1F3" mask="url(#path-12-inside-6_569_564)"/>
<mask id="path-14-inside-7_569_564" fill="white">
<path d="M23.1372 23.0798V14.2064C24.9043 15.4737 27.0235 16.1533 29.1985 16.1482V12.7711C27.9134 12.5001 26.7517 11.8188 25.8888 10.8293C24.4948 9.92759 23.5348 8.49317 23.23 6.86118H20.0385V24.3377C19.9744 25.8971 18.9308 27.2454 17.4364 27.6963C15.9428 28.1471 14.3259 27.6017 13.4098 26.3387C11.9221 25.556 11.1589 23.8599 11.5591 22.2262C11.9576 20.5934 13.4166 19.4409 15.0985 19.4325C15.4649 19.4358 15.8288 19.4924 16.1792 19.6013V16.2242C13.0054 16.2783 10.1643 18.2015 8.93497 21.1269C7.70649 24.0532 8.322 27.4295 10.5054 29.7327C11.8622 30.6495 13.4706 31.124 15.1077 31.0919C19.5353 31.0919 23.1279 27.508 23.1372 23.0798Z"/>
</mask>
<path d="M23.1372 23.0798V14.2064C24.9043 15.4737 27.0235 16.1533 29.1985 16.1482V12.7711C27.9134 12.5001 26.7517 11.8188 25.8888 10.8293C24.4948 9.92759 23.5348 8.49317 23.23 6.86118H20.0385V24.3377C19.9744 25.8971 18.9308 27.2454 17.4364 27.6963C15.9428 28.1471 14.3259 27.6017 13.4098 26.3387C11.9221 25.556 11.1589 23.8599 11.5591 22.2262C11.9576 20.5934 13.4166 19.4409 15.0985 19.4325C15.4649 19.4358 15.8288 19.4924 16.1792 19.6013V16.2242C13.0054 16.2783 10.1643 18.2015 8.93497 21.1269C7.70649 24.0532 8.322 27.4295 10.5054 29.7327C11.8622 30.6495 13.4706 31.124 15.1077 31.0919C19.5353 31.0919 23.1279 27.508 23.1372 23.0798Z" fill="#EE7601"/>
<path d="M23.1372 23.0798L36.637 23.1081L36.6371 23.0939V23.0798H23.1372ZM23.1372 14.2064L31.0044 3.23581L9.63727 -12.087V14.2064H23.1372ZM29.1985 16.1482L29.2299 29.6481L42.6984 29.6167V16.1482H29.1985ZM29.1985 12.7711H42.6984V1.82137L31.9843 -0.438209L29.1985 12.7711ZM25.8888 10.8293L36.0633 1.95655L34.8153 0.525433L33.221 -0.505886L25.8888 10.8293ZM23.23 6.86118L36.5005 4.38273L34.4421 -6.63872H23.23V6.86118ZM20.0385 6.86118V-6.63872H6.53864V6.86118H20.0385ZM20.0385 24.3377L33.527 24.8928L33.5384 24.6154V24.3377H20.0385ZM17.4364 27.6963L13.5372 14.7717L13.5352 14.7723L17.4364 27.6963ZM13.4098 26.3387L24.3379 18.4125L22.4863 15.8596L19.6952 14.3912L13.4098 26.3387ZM11.5591 22.2262L24.6713 25.4383L24.674 25.4271L11.5591 22.2262ZM15.0985 19.4325L15.2229 5.93315L15.1268 5.93226L15.0307 5.93275L15.0985 19.4325ZM16.1792 19.6013L12.1721 32.4928L29.6791 37.9345V19.6013H16.1792ZM16.1792 16.2242H29.6791V2.49253L15.9494 2.72628L16.1792 16.2242ZM8.93497 21.1269L-3.51072 15.897L-3.51254 15.9014L8.93497 21.1269ZM10.5054 29.7327L0.708133 39.0203L1.72366 40.0916L2.94669 40.9181L10.5054 29.7327ZM15.1077 31.0919V17.5921H14.9755L14.8432 17.5946L15.1077 31.0919ZM36.6371 23.0798V14.2064H9.63727V23.0798H36.6371ZM15.2699 25.177C19.336 28.0929 24.2178 29.6598 29.2299 29.6481L29.167 2.64837C29.8292 2.64683 30.4726 2.85444 31.0044 3.23581L15.2699 25.177ZM42.6984 16.1482V12.7711H15.6986V16.1482H42.6984ZM31.9843 -0.438209C33.5639 -0.105075 34.997 0.733689 36.0633 1.95655L15.7142 19.702C18.5064 22.9039 22.263 25.1053 26.4127 25.9804L31.9843 -0.438209ZM33.221 -0.505886C34.9454 0.609547 36.1267 2.38144 36.5005 4.38273L9.9596 9.33962C10.943 14.6049 14.0443 19.2456 18.5566 22.1644L33.221 -0.505886ZM23.23 -6.63872H20.0385V20.3611H23.23V-6.63872ZM6.53864 6.86118V24.3377H33.5384V6.86118H6.53864ZM6.55005 23.7827C6.72188 19.607 9.51838 15.9841 13.5372 14.7717L21.3355 40.6208C28.3432 38.5067 33.2268 32.1872 33.527 24.8928L6.55005 23.7827ZM13.5352 14.7723C17.5482 13.561 21.8812 15.0254 24.3379 18.4125L2.48172 34.2648C6.77057 40.178 14.3374 42.7332 21.3375 40.6202L13.5352 14.7723ZM19.6952 14.3912C23.6992 16.4977 25.7447 21.0565 24.6713 25.4383L-1.55309 19.0141C-3.42693 26.6633 0.145132 34.6144 7.12446 38.2861L19.6952 14.3912ZM24.674 25.4271C23.6035 29.8132 19.6838 32.9095 15.1662 32.9322L15.0307 5.93275C7.14937 5.97231 0.311678 11.3736 -1.55584 19.0253L24.674 25.4271ZM14.974 32.9318C14.0326 32.9231 13.088 32.7775 12.1721 32.4928L20.1862 6.70984C18.5696 6.20734 16.8972 5.94858 15.2229 5.93315L14.974 32.9318ZM29.6791 19.6013V16.2242H2.67928V19.6013H29.6791ZM15.9494 2.72628C7.42481 2.87141 -0.20816 8.0379 -3.51072 15.897L21.3807 26.3569C20.5367 28.3651 18.586 29.6851 16.409 29.7222L15.9494 2.72628ZM-3.51254 15.9014C-6.81152 23.7596 -5.16026 32.83 0.708133 39.0203L20.3027 20.445C21.8043 22.029 22.2245 24.3468 21.3825 26.3525L-3.51254 15.9014ZM2.94669 40.9181C6.6142 43.3964 10.9559 44.6758 15.3722 44.5893L14.8432 17.5946C15.9853 17.5723 17.1102 17.9027 18.0641 18.5473L2.94669 40.9181ZM15.1077 44.5918C26.9784 44.5918 36.6121 34.9826 36.637 23.1081L9.6373 23.0514C9.64363 20.0334 12.0922 17.5921 15.1077 17.5921V44.5918Z" fill="#1AC1F3" mask="url(#path-14-inside-7_569_564)"/>
<path d="M23.1372 23.0798V14.2064C24.9043 15.4737 27.0235 16.1533 29.1985 16.1482V12.7711C27.9134 12.5001 26.7517 11.8188 25.8888 10.8293C24.4948 9.92759 23.5348 8.49316 23.23 6.86118H20.0385V24.3377C19.9744 25.8971 18.9308 27.2454 17.4364 27.6963C15.9428 28.1471 14.3259 27.6017 13.4098 26.3387C11.9221 25.556 11.1589 23.8599 11.5591 22.2262C11.9576 20.5934 13.4166 19.4409 15.0985 19.4325C15.4649 19.4358 15.8288 19.4924 16.1792 19.6013V16.2242C13.0054 16.2783 10.1643 18.2015 8.93497 21.1269C7.70649 24.0532 8.322 27.4295 10.5054 29.7327C11.8622 30.6495 13.4706 31.124 15.1077 31.0919C19.5353 31.0919 23.1279 27.508 23.1372 23.0798Z" stroke="#1AC1F3" stroke-width="2.69998"/>
</g>
<defs>
<radialGradient id="paint0_radial_569_564" cx="0" cy="0" r="1" gradientUnits="userSpaceOnUse" gradientTransform="translate(9.73067 9.99806) rotate(-0.069) scale(44.6111)">
<stop stop-color="#282828"/>
<stop offset="0.5" stop-color="#141414"/>
<stop offset="1"/>
</radialGradient>
</defs>
</svg>
