<svg width="150" height="150" viewBox="0 0 150 150" fill="none" xmlns="http://www.w3.org/2000/svg">
<g clip-path="url(#clip0_610_261)">
<path d="M74.9974 119.614C54.794 119.614 38.3573 103.177 38.3573 82.9738C38.3573 77.0366 39.8052 71.1586 42.5496 65.9378C42.8626 62.5887 43.6779 59.3561 44.9814 56.2914C40.6346 53.9009 37.8652 49.3303 37.8652 44.1967C37.8652 36.5819 44.0606 30.3865 51.6754 30.3865C57.1164 30.3865 61.9156 33.5163 64.1557 38.2669C67.623 37.04 71.2586 36.4193 74.9974 36.4193C78.7361 36.4193 82.3715 37.04 85.8387 38.2669C88.0789 33.5162 92.878 30.3865 98.319 30.3865C105.937 30.3865 112.134 36.5819 112.134 44.1967C112.134 49.3308 109.363 53.9018 105.014 56.2919C106.317 59.3566 107.132 62.5892 107.445 65.9378C110.19 71.1587 111.637 77.0367 111.637 82.9738C111.637 103.177 95.2007 119.614 74.9974 119.614ZM51.6754 35.356C46.8006 35.356 42.8347 39.3219 42.8347 44.1967C42.8347 48.1039 45.3379 51.501 49.0638 52.6511C49.7699 52.8691 50.3424 53.3898 50.6258 54.0726C50.9092 54.7549 50.874 55.528 50.5299 56.1822C48.7831 59.5026 47.7499 63.0919 47.4592 66.8506C47.432 67.2 47.3313 67.5397 47.1639 67.8474C44.6537 72.4563 43.3269 77.6869 43.3269 82.9738C43.3269 100.437 57.5343 114.644 74.9974 114.644C92.4605 114.644 106.668 100.437 106.668 82.9738C106.668 77.6869 105.341 72.4563 102.831 67.8474C102.663 67.5398 102.563 67.2001 102.536 66.8506C102.245 63.0919 101.212 59.5027 99.4646 56.1822C99.1203 55.528 99.0854 54.7549 99.3688 54.0721C99.6524 53.3893 100.225 52.8686 100.931 52.6506C104.66 51.5014 107.165 48.1039 107.165 44.1967C107.165 39.3218 103.197 35.356 98.3191 35.356C94.2154 35.356 90.6826 38.1343 89.7278 42.1128C89.5552 42.8321 89.0709 43.4372 88.4065 43.7634C87.7424 44.0895 86.9671 44.1021 86.2928 43.7993C82.7358 42.1997 78.9356 41.3888 74.9974 41.3888C71.0592 41.3888 67.2588 42.1997 63.7018 43.7993C63.0272 44.1021 62.2519 44.0895 61.588 43.7634C60.9237 43.4373 60.4393 42.8321 60.2668 42.1128C59.312 38.1343 55.7792 35.356 51.6754 35.356Z" fill="#2F3092"/>
<path d="M75.3477 89.3578C79.1549 89.3578 82.2413 86.2715 82.2413 82.4643C82.2413 78.657 79.1549 75.5707 75.3477 75.5707C71.5405 75.5707 68.4541 78.657 68.4541 82.4643C68.4541 86.2715 71.5405 89.3578 75.3477 89.3578Z" fill="#2F3092"/>
<path d="M75.3481 100.386C67.7612 100.386 61.5889 94.2133 61.5889 86.6266C61.5889 85.2542 62.7014 84.1418 64.0736 84.1418C65.4458 84.1418 66.5584 85.2542 66.5584 86.6266C66.5584 91.4733 70.5015 95.4164 75.3481 95.4164C80.1948 95.4164 84.1382 91.4733 84.1382 86.6266C84.1382 85.2542 85.2507 84.1418 86.6229 84.1418C87.9951 84.1418 89.1077 85.2542 89.1077 86.6266C89.1077 94.2133 82.9351 100.386 75.3481 100.386Z" fill="#2F3092"/>
<path d="M66.688 76.3964C65.3158 76.3964 64.2033 75.2841 64.2033 73.9117C64.2033 71.7555 62.4491 70.0016 60.2929 70.0016C58.1367 70.0016 56.3826 71.7555 56.3826 73.9117C56.3826 75.2841 55.27 76.3964 53.8978 76.3964C52.5257 76.3964 51.4131 75.2841 51.4131 73.9117C51.4131 69.0155 55.3964 65.0321 60.2929 65.0321C65.1894 65.0321 69.1728 69.0155 69.1728 73.9117C69.1728 75.2841 68.0602 76.3964 66.688 76.3964Z" fill="#2F3092"/>
<path d="M96.7368 76.4591C95.3647 76.4591 94.2521 75.3467 94.2521 73.9743C94.2521 71.8181 92.498 70.0642 90.3417 70.0642C88.1855 70.0642 86.4314 71.8181 86.4314 73.9743C86.4314 75.3467 85.3188 76.4591 83.9467 76.4591C82.5745 76.4591 81.4619 75.3467 81.4619 73.9743C81.4619 69.0781 85.4453 65.0947 90.3417 65.0947C95.2382 65.0947 99.2216 69.0781 99.2216 73.9743C99.2216 75.3467 98.109 76.4591 96.7368 76.4591Z" fill="#2F3092"/>
<path d="M53.8975 58.6115C53.8975 55.0797 56.7606 52.2166 60.2924 52.2166C63.8243 52.2166 66.6874 55.0797 66.6874 58.6115" fill="#2F3092"/>
<path d="M83.9463 58.674C83.9463 55.1422 86.8094 52.2791 90.3413 52.2791C93.8731 52.2791 96.7363 55.1422 96.7363 58.674" fill="#2F3092"/>
</g>
<defs>
<clipPath id="clip0_610_261">
<rect width="150" height="150" fill="white"/>
</clipPath>
</defs>
</svg>
