<svg width="433" height="537" viewBox="0 0 433 537" fill="none" xmlns="http://www.w3.org/2000/svg">
<path d="M9.75563 13.6684C15.0894 12.3003 26.4863 3.11162 30.3579 3.11162C34.2295 3.11162 21.6469 13.8073 24.1357 18.3912C26.6246 22.975 30.0814 14.7796 40.1751 15.8909C50.2688 17.0021 50.4071 24.7808 59.6712 17.5578C68.9353 10.3347 78.6143 0.611312 83.3155 0.611312C88.0167 0.611312 85.5278 5.19517 93.5475 5.19517C101.567 5.19517 107.928 7.69545 116.362 3.5283C124.797 -0.638855 134.199 -0.638855 136.273 4.36174C138.347 9.36233 140.006 5.19517 146.782 3.5283C153.557 1.86143 155.078 15.5772 159.226 20.5957C163.374 25.6142 161.715 30.7537 167.246 37.1433C172.776 43.533 195.176 51.5895 209.971 49.5059C224.766 47.4223 222.139 50.6171 224.766 55.7566C227.393 60.8961 235.413 69.6471 236.242 75.0644C237.072 80.4818 244.539 81.593 244.262 84.6489C243.986 87.7048 237.21 87.0103 236.381 97.706C235.551 108.402 241.082 128.96 241.082 133.96C241.082 138.961 243.986 158.408 235.966 156.88C227.946 155.352 195.729 129.654 188.539 125.07C181.349 120.486 176.648 119.514 173.744 119.514C170.841 119.514 180.52 123.126 181.764 125.348C183.008 127.571 184.253 131.46 180.934 132.71C177.616 133.96 182.594 133.682 188.954 132.293C195.314 130.904 198.633 142.156 199.048 146.323C199.463 150.49 198.771 153.129 193.655 153.963C188.539 154.796 193.102 156.88 199.048 157.713C204.993 158.546 214.534 156.324 221.586 157.019C228.638 157.713 226.149 157.435 215.64 158.685C205.132 159.936 199.186 165.492 198.356 167.159C197.527 168.825 191.443 171.465 193.102 174.798C194.761 178.132 201.122 181.883 197.25 185.355C193.379 188.828 189.231 183.966 189.092 188.55C188.954 193.134 193.794 198.69 197.112 202.024C200.43 205.357 204.054 207.024 204.593 211.747C205.132 216.47 198.108 219.109 204.593 220.776C211.077 222.443 214.119 219.665 217.438 215.775C220.756 211.886 218.682 205.774 235.966 218.553C253.25 231.333 324.182 271.754 336.35 274.81C348.518 277.866 402.858 308.147 407.145 312.731C411.431 317.315 424.982 353.43 425.396 356.208C425.811 358.986 420.833 363.57 424.152 364.959C427.47 366.348 431.757 373.433 432.586 377.739C433.416 382.045 417.653 379.128 417.93 388.018C418.206 396.908 418.621 398.436 423.737 403.019C428.853 407.603 420.004 407.187 422.493 411.909C424.982 416.632 430.789 414.41 430.512 419.966C430.236 425.522 427.332 432.328 426.917 433.995C426.503 435.662 422.631 431.217 422.631 436.634C422.631 442.052 423.046 450.525 426.226 452.47C429.406 454.414 431.757 458.443 426.641 462.193C421.525 465.943 428.853 466.36 425.811 471.5C422.769 476.639 415.994 476.639 417.238 483.029C418.483 489.418 418.759 490.252 421.801 490.252C424.843 490.252 420.004 500.392 422.078 504.281C424.152 508.171 437.011 528.451 429.821 533.59C422.631 538.73 423.461 535.535 411.984 529.979C400.508 524.422 392.765 511.643 388.202 503.587C383.639 495.53 369.259 431.217 360.133 404.825C351.007 378.433 298.602 314.12 285.605 299.674C272.608 285.228 236.657 252.585 224.766 252.446C212.875 252.307 179.828 250.918 172.223 256.058C164.618 261.197 157.014 273.282 149.824 278.283C142.633 283.283 128.53 283.7 118.021 272.449C107.513 261.197 106.407 246.334 92.9944 229.388C79.5822 212.442 63.8194 186.883 54.9701 181.327C46.1208 175.771 33.6764 174.104 24.4123 163.825C15.1482 153.546 6.99026 148.823 16.2544 125.07C25.5185 101.318 35.905 97.0292 41.6961 78.5372C45.5677 66.1746 41.4196 65.0634 35.8888 64.2299C30.358 63.3965 33.1234 60.4795 33.5382 56.1734C33.953 51.8674 32.5703 48.2559 24.2741 45.6167C15.9778 42.9775 15.8243 39.6483 13.3507 29.087C12.2445 24.3641 1.45941 22.1416 0.214979 18.3912C-1.02945 14.6408 3.25692 15.3353 9.75563 13.6684Z" fill="#1AC1F3"/>
</svg>
