<svg width="233" height="233" viewBox="0 0 233 233" fill="none" xmlns="http://www.w3.org/2000/svg">
<g clip-path="url(#clip0_599_170)">
<path d="M170.71 113.702C170.71 113.702 142.233 107.837 120.741 129.329L72.8759 177.194C70.664 180.337 67.0193 182.388 62.891 182.388C56.1568 182.388 50.7031 176.934 50.7031 170.2C50.7031 166.842 52.0643 163.788 54.2672 161.585L54.1956 161.513L103.556 112.153C125.048 90.6607 119.191 62.1747 119.191 62.1747L143.254 86.2459L170.71 113.702Z" stroke="#EE7601" stroke-width="10" stroke-linecap="round" stroke-linejoin="round"/>
<path d="M50.5813 172.725L32.0752 191.231L41.8958 201.052L60.4019 182.546" stroke="#EE7601" stroke-width="10" stroke-linecap="round" stroke-linejoin="round"/>
<path d="M146.703 62.6746V27.5056" stroke="#EE7601" stroke-width="10" stroke-linecap="round" stroke-linejoin="round"/>
<path d="M163.575 69.2867L188.443 44.4185" stroke="#EE7601" stroke-width="10" stroke-linecap="round" stroke-linejoin="round"/>
<path d="M170.831 85.8934H206" stroke="#EE7601" stroke-width="10" stroke-linecap="round" stroke-linejoin="round"/>
<path d="M56.8691 158.841L73.7228 175.694" stroke="#EE7601" stroke-width="10" stroke-linecap="round" stroke-linejoin="round"/>
<path d="M67.0488 148.66L83.9024 165.514" stroke="#EE7601" stroke-width="10" stroke-linecap="round" stroke-linejoin="round"/>
</g>
<defs>
<clipPath id="clip0_599_170">
<rect width="232.019" height="232.019" fill="white"/>
</clipPath>
</defs>
</svg>
